<?xml version="1.0" standalone="no"?>
<!DOCTYPE svg PUBLIC "-//W3C//DTD SVG 20010904//EN"
 "http://www.w3.org/TR/2001/REC-SVG-20010904/DTD/svg10.dtd">
<svg version="1.0" xmlns="http://www.w3.org/2000/svg"
 viewBox="0 0 350.000000 525.000000"
 preserveAspectRatio="xMidYMid meet">

<g transform="translate(0.000000,525.000000) scale(0.100000,-0.100000)"
fill="#000000" stroke="none">
<path d="M573 2980 c-54 -32 -71 -90 -33 -110 18 -10 20 -8 20 19 0 39 9 60
31 71 18 10 3 -40 -60 -204 -13 -32 -9 -41 13 -33 7 3 24 35 36 71 12 36 24
66 27 66 3 0 2 -31 -1 -70 l-7 -70 29 0 c28 0 33 6 61 73 18 40 30 59 27 42
-20 -123 -21 -115 12 -115 l30 0 12 88 c12 91 18 118 19 90 1 -10 9 -22 20
-27 16 -9 19 -6 25 30 5 30 14 44 39 59 36 22 77 26 95 8 41 -41 -24 -240 -69
-213 -19 13 -4 118 24 170 25 43 25 45 6 45 -70 0 -134 -185 -81 -233 26 -24
84 -21 116 4 32 25 66 89 66 124 0 25 1 25 25 9 25 -16 25 -16 25 18 0 34 23
78 41 78 5 0 9 -54 9 -126 l0 -125 32 3 c31 3 34 7 67 97 28 75 36 89 43 72
12 -34 38 -26 38 12 0 21 8 41 20 52 11 10 20 16 20 13 0 -8 -37 -189 -46
-222 -6 -24 -3 -26 23 -26 30 0 30 2 48 83 9 45 23 108 30 141 l14 58 -41 -5
c-23 -3 -54 -15 -70 -27 l-29 -21 7 25 c4 19 2 26 -8 26 -9 0 -27 -40 -50
-107 l-36 -108 -1 108 c-1 106 -1 107 -25 107 -39 0 -76 -18 -107 -51 -25 -26
-29 -28 -29 -12 0 34 -42 63 -89 63 -48 0 -112 -29 -136 -62 -16 -23 -16 -22
-13 17 3 38 1 40 -25 40 -26 0 -31 -7 -64 -85 -19 -47 -37 -87 -39 -89 -2 -2
-1 37 2 87 l7 92 -34 0 c-19 0 -48 -9 -66 -20z"/>
<path d="M1476 2969 c-29 -34 -31 -42 -16 -69 8 -15 4 -25 -20 -49 -23 -23
-30 -38 -30 -70 0 -67 61 -92 127 -51 33 20 62 60 43 60 -5 0 -10 -4 -10 -9 0
-13 -57 -34 -75 -27 -26 10 -18 64 15 97 23 23 26 31 15 36 -20 7 -20 67 0 83
22 18 37 2 30 -31 -4 -16 -3 -29 2 -29 16 0 33 23 33 45 0 54 -73 63 -114 14z"/>
<path d="M1725 2985 c-62 -32 -86 -93 -45 -115 18 -10 20 -8 20 25 0 48 36 85
84 85 46 0 62 -26 46 -75 -11 -33 -36 -62 -45 -53 -3 3 0 29 6 57 6 29 9 54 7
56 -1 2 -15 1 -29 -2 -25 -5 -28 -12 -49 -111 -13 -59 -25 -113 -27 -119 -4
-9 5 -13 25 -13 32 0 34 3 47 67 5 25 14 34 41 43 18 6 43 23 54 37 11 14 20
21 20 14 0 -6 9 -11 20 -11 17 0 18 -5 13 -50 -8 -71 12 -100 71 -100 77 0
130 72 130 178 1 55 -2 66 -23 83 -43 35 -142 19 -190 -32 -16 -18 -21 -19
-21 -7 0 48 -94 73 -155 43z m336 -37 c8 -32 -5 -107 -27 -153 -16 -35 -38
-50 -56 -39 -17 11 -2 109 26 164 22 44 23 50 8 50 -27 0 -58 -26 -72 -60 -15
-36 -29 -40 -22 -5 13 68 127 102 143 43z"/>
<path d="M2202 2984 c-34 -24 -29 -72 13 -125 37 -47 45 -88 20 -109 -8 -6
-23 -9 -35 -5 -27 9 -28 55 0 62 25 7 26 20 0 28 -48 15 -86 -44 -56 -90 52
-80 199 -7 165 83 -6 15 -23 41 -39 57 -36 39 -45 68 -25 85 23 19 48 4 41
-24 -7 -29 9 -43 29 -26 57 48 -50 108 -113 64z"/>
<path d="M2395 2990 c-51 -20 -78 -85 -48 -115 17 -18 18 -17 24 18 7 43 25
67 50 67 11 0 19 -2 19 -5 0 -5 -31 -148 -45 -212 -5 -20 -1 -23 25 -23 16 0
30 2 30 5 0 4 29 141 45 211 7 30 65 22 65 -10 0 -11 4 -27 9 -35 6 -9 -1 -22
-21 -40 -58 -52 -32 -141 42 -141 33 0 94 39 98 64 4 18 2 17 -23 -2 -35 -27
-61 -28 -75 -2 -12 23 11 84 36 94 11 4 11 10 -3 34 -16 28 -16 31 1 56 26 41
47 27 35 -24 -3 -9 3 -14 14 -14 12 1 17 -5 17 -22 0 -39 35 -31 37 9 3 45 44
79 92 75 29 -2 37 -8 39 -26 4 -24 -22 -72 -38 -72 -5 0 -7 14 -3 33 3 17 6
37 7 42 1 9 -43 8 -53 0 -3 -4 -50 -213 -51 -227 0 -5 13 -8 29 -8 28 0 30 2
42 70 10 55 16 70 28 68 12 -3 15 -13 12 -38 -2 -19 -5 -51 -5 -70 -1 -31 2
-35 24 -35 18 0 25 6 25 20 0 11 4 41 9 68 5 30 5 52 -2 60 -7 8 -6 18 4 31
21 30 17 72 -8 90 -34 24 -99 20 -140 -8 l-35 -23 -9 21 c-8 20 -17 21 -144
23 -74 0 -144 -2 -155 -7z"/>
<path d="M2976 2991 c-9 -14 -34 -180 -28 -186 18 -17 32 6 56 88 14 51 26 96
26 100 0 10 -48 9 -54 -2z"/>
<path d="M2932 2771 c-23 -14 -10 -46 18 -46 20 0 25 5 25 25 0 26 -20 36 -43
21z"/>
<path d="M1190 2625 l0 -25 560 0 560 0 0 25 0 25 -560 0 -560 0 0 -25z"/>
<path d="M1977 2574 c-8 -8 1 -24 14 -24 5 0 9 7 9 15 0 15 -12 20 -23 9z"/>
<path d="M2302 2569 c-13 -5 -20 -13 -17 -19 4 -7 12 -7 25 0 25 13 50 2 50
-21 0 -11 -18 -39 -40 -63 -22 -24 -40 -46 -40 -50 0 -3 25 -6 55 -6 30 0 55
5 55 10 0 6 -19 10 -42 10 l-42 0 37 38 c42 43 49 85 18 102 -23 12 -28 12
-59 -1z"/>
<path d="M2493 2570 c-32 -13 -29 -24 5 -17 55 11 72 -35 17 -49 -33 -8 -32
-22 3 -26 19 -2 28 -9 30 -25 3 -21 -1 -23 -37 -23 -23 0 -41 -4 -41 -10 0 -5
18 -10 39 -10 59 0 91 41 56 70 -11 9 -13 16 -5 24 17 17 11 55 -9 66 -23 12
-28 12 -58 0z"/>
<path d="M1540 2545 c0 -8 -5 -15 -12 -15 -9 0 -9 -3 0 -12 7 -7 12 -31 12
-55 0 -46 13 -59 47 -50 16 4 15 6 -4 12 -19 6 -23 15 -23 45 0 30 4 39 23 45
l22 8 -22 4 c-13 2 -23 11 -23 19 0 8 -4 14 -10 14 -5 0 -10 -7 -10 -15z"/>
<path d="M1900 2546 c0 -8 -6 -17 -12 -20 -10 -5 -10 -7 0 -12 7 -3 12 -24 12
-50 0 -47 12 -60 47 -51 16 4 15 6 -4 12 -19 6 -23 15 -23 46 0 28 4 39 15 39
8 0 15 5 15 10 0 6 -7 10 -15 10 -8 0 -15 7 -15 15 0 8 -4 15 -10 15 -5 0 -10
-6 -10 -14z"/>
<path d="M958 2532 c-10 -2 -18 -8 -18 -14 0 -5 7 -8 15 -4 21 8 45 -3 45 -20
0 -9 -11 -14 -29 -14 -33 0 -54 -21 -49 -47 3 -14 14 -18 51 -19 l48 -2 -3 55
c-3 58 -18 75 -60 65z m40 -79 c-2 -11 -14 -19 -31 -21 -30 -4 -36 12 -9 27
26 16 44 13 40 -6z"/>
<path d="M1068 2529 c-29 -16 -22 -49 12 -62 17 -6 30 -17 30 -24 0 -8 -12
-13 -30 -13 -16 0 -30 -4 -30 -10 0 -14 64 -12 78 2 21 21 13 38 -23 55 -40
19 -41 39 -1 35 28 -3 36 12 10 22 -21 8 -26 7 -46 -5z"/>
<path d="M1201 2531 c-8 -5 -20 -7 -28 -4 -11 4 -13 -11 -11 -81 2 -51 7 -85
13 -84 6 2 10 14 10 28 0 22 4 25 28 22 38 -6 57 14 57 59 0 28 -6 42 -22 53
-26 18 -28 19 -47 7z m47 -64 c-2 -27 -8 -33 -30 -35 -26 -3 -28 -1 -28 37 0
42 13 54 43 39 13 -7 17 -18 15 -41z"/>
<path d="M1319 2522 c-25 -21 -30 -71 -9 -96 14 -17 75 -22 85 -7 3 6 -11 11
-32 13 -50 4 -55 26 -6 30 30 2 39 7 41 25 2 13 -5 27 -20 37 -28 20 -31 20
-59 -2z m49 -14 c19 -19 14 -28 -18 -28 -16 0 -30 4 -30 8 0 9 21 32 30 32 3
0 11 -5 18 -12z"/>
<path d="M1455 2528 c-27 -15 -35 -28 -35 -59 0 -32 28 -59 63 -59 35 0 35 18
0 22 -24 3 -28 8 -31 41 -3 35 -2 37 27 37 33 0 41 14 15 24 -19 7 -15 8 -39
-6z"/>
<path d="M1720 2530 c-7 -4 -19 -6 -27 -3 -10 4 -13 -9 -13 -56 0 -72 18 -83
22 -13 3 40 6 47 26 50 12 2 22 7 22 12 0 14 -15 19 -30 10z"/>
<path d="M1798 2532 c-10 -2 -18 -8 -18 -14 0 -5 7 -8 15 -4 21 8 45 -3 45
-20 0 -9 -11 -14 -29 -14 -33 0 -54 -21 -49 -47 3 -14 14 -18 51 -19 l48 -2
-3 55 c-3 58 -18 75 -60 65z m40 -79 c-2 -11 -14 -19 -31 -21 -30 -4 -36 12
-9 27 26 16 44 13 40 -6z"/>
<path d="M2052 2524 c-25 -17 -31 -81 -10 -102 20 -20 76 -15 88 7 34 64 -23
134 -78 95z m63 -35 c11 -35 -4 -60 -33 -57 -22 2 -28 9 -30 33 -6 49 49 70
63 24z"/>
<path d="M2174 2526 c-8 -22 3 -33 18 -18 9 9 9 15 0 24 -9 9 -13 7 -18 -6z"/>
<path d="M2420 2521 c0 -12 5 -21 10 -21 6 0 10 6 10 14 0 8 -4 18 -10 21 -5
3 -10 -3 -10 -14z"/>
<path d="M1980 2470 c0 -33 4 -60 10 -60 6 0 10 27 10 60 0 33 -4 60 -10 60
-6 0 -10 -27 -10 -60z"/>
<path d="M2170 2425 c0 -9 5 -15 11 -13 6 2 11 8 11 13 0 5 -5 11 -11 13 -6 2
-11 -4 -11 -13z"/>
<path d="M2417 2434 c-8 -8 1 -24 14 -24 5 0 9 7 9 15 0 15 -12 20 -23 9z"/>
</g>
</svg>
