<?xml version="1.0" standalone="no"?>
<!DOCTYPE svg PUBLIC "-//W3C//DTD SVG 20010904//EN"
 "http://www.w3.org/TR/2001/REC-SVG-20010904/DTD/svg10.dtd">
<svg version="1.0" xmlns="http://www.w3.org/2000/svg"
 viewBox="0 0 350.000000 525.000000"
 preserveAspectRatio="xMidYMid meet">

<g transform="translate(0.000000,525.000000) scale(0.100000,-0.100000)"
fill="#000000" stroke="none">
<path d="M557 2989 c-10 -6 -22 -22 -28 -35 -10 -29 -2 -48 42 -105 43 -55 33
-117 -18 -107 -28 5 -30 58 -4 65 17 4 19 8 10 19 -17 21 -46 17 -63 -8 -24
-33 -19 -64 12 -88 57 -46 152 -2 152 69 0 28 -10 48 -40 85 -41 50 -46 62
-31 84 14 24 46 10 46 -20 0 -34 11 -44 30 -28 54 44 -43 107 -108 69z"/>
<path d="M755 2975 c-26 -26 -31 -54 -15 -85 8 -15 6 -20 -9 -25 -25 -8 -54
-70 -47 -101 15 -58 102 -69 152 -19 32 32 31 52 -2 26 -70 -55 -116 21 -50
83 21 19 22 24 10 41 -18 25 -18 50 2 70 22 22 48 2 34 -25 -11 -21 2 -36 22
-24 6 4 8 3 5 -4 -11 -16 3 -42 22 -42 11 0 16 9 17 32 2 39 43 78 83 78 51 0
66 -39 32 -81 -25 -31 -35 -20 -23 24 12 43 9 47 -26 38 -24 -7 -28 -16 -48
-112 -29 -132 -29 -129 4 -129 28 0 29 3 42 70 9 47 18 70 27 70 11 0 13 -16
11 -72 -3 -72 -3 -73 22 -73 16 0 24 5 22 14 -2 7 3 38 9 67 9 38 9 57 1 66
-7 9 -6 18 4 32 21 30 17 72 -8 90 -34 24 -99 20 -142 -9 -20 -13 -36 -20 -36
-15 0 18 -33 40 -61 40 -18 0 -39 -9 -54 -25z"/>
<path d="M1145 2985 c-62 -32 -86 -93 -45 -115 18 -10 20 -8 20 23 0 34 23 77
35 65 5 -5 -24 -165 -41 -220 -4 -15 1 -18 25 -18 24 0 32 5 36 23 3 12 14 67
26 122 11 55 23 108 25 118 7 22 -38 23 -81 2z"/>
<path d="M1290 2975 c-19 -20 -22 -32 -17 -65 3 -22 1 -40 -4 -40 -16 0 -49
-63 -49 -92 0 -16 10 -38 21 -49 28 -28 92 -21 126 14 l25 24 29 -30 c26 -26
35 -29 70 -24 95 13 117 88 49 171 -41 50 -46 62 -31 84 14 24 46 10 46 -20 0
-34 11 -44 30 -28 36 30 2 80 -54 80 -43 0 -70 -15 -81 -46 -11 -29 -3 -48 41
-105 43 -55 33 -117 -18 -107 -28 5 -30 58 -4 65 17 4 19 8 10 19 -19 24 -42
16 -79 -27 -27 -32 -43 -41 -70 -42 -33 -2 -35 0 -38 31 -3 25 3 39 26 62 25
24 27 31 16 41 -21 18 -18 66 6 79 22 12 35 -3 28 -32 -3 -13 3 -18 22 -18 14
0 12 54 -2 68 -21 21 -72 14 -98 -13z"/>
<path d="M1739 2977 c-55 -37 -75 -107 -30 -107 11 0 16 9 17 32 3 81 134 111
134 31 0 -31 -25 -79 -45 -87 -16 -6 -16 -1 5 81 10 39 6 43 -28 34 -24 -7
-28 -16 -48 -112 -29 -132 -29 -129 5 -129 26 0 29 4 35 42 8 48 21 68 46 68
9 0 29 12 43 26 21 21 29 24 46 14 19 -10 21 -8 21 19 0 17 10 41 23 56 26 30
89 44 112 25 41 -34 -11 -220 -62 -220 -32 0 -6 158 34 202 15 17 15 18 -9 18
-50 0 -98 -83 -98 -169 0 -61 17 -81 69 -81 75 0 130 77 131 181 0 46 -4 59
-25 79 -34 32 -118 25 -169 -13 -40 -31 -46 -33 -46 -13 0 46 -105 61 -161 23z"/>
<path d="M2222 2977 c-31 -33 -27 -58 18 -118 47 -62 51 -94 15 -111 -46 -21
-75 27 -34 56 23 16 18 36 -10 36 -43 0 -68 -72 -35 -104 36 -36 99 -32 140 9
36 36 31 73 -17 134 -46 57 -50 94 -11 99 21 3 23 0 20 -30 -2 -27 0 -33 17
-33 24 0 34 48 14 71 -19 23 -92 18 -117 -9z"/>
<path d="M2408 2984 c-49 -26 -66 -94 -28 -114 18 -10 20 -8 20 20 0 44 17 70
44 70 l23 0 -23 -102 c-31 -136 -30 -140 3 -136 27 3 29 7 53 118 l25 115 31
-3 c29 -3 32 -7 36 -40 3 -24 0 -40 -9 -45 -19 -12 -43 -62 -43 -92 0 -14 10
-35 21 -46 29 -29 90 -21 130 17 32 31 41 58 10 30 -11 -10 -35 -19 -53 -19
-30 -2 -33 1 -36 31 -3 25 3 39 26 62 25 24 27 31 16 41 -21 18 -18 66 6 79
23 12 34 -3 28 -36 -2 -11 2 -18 10 -17 6 2 12 -6 12 -17 0 -10 9 -24 20 -30
18 -10 20 -8 20 19 0 43 9 60 41 76 62 33 112 5 88 -49 -7 -14 -18 -27 -27
-31 -12 -4 -13 2 -7 40 l6 46 -28 -7 c-15 -4 -29 -7 -29 -8 -1 -1 -13 -54 -26
-118 l-25 -118 28 0 c30 0 29 -1 49 88 8 32 17 52 26 52 17 0 18 -26 3 -87
-10 -37 -9 -47 2 -54 25 -16 54 -6 51 17 -1 12 2 41 7 64 6 29 6 50 0 62 -7
13 -6 25 6 40 54 78 -55 131 -150 74 l-39 -24 -11 21 c-10 21 -18 22 -145 24
-102 1 -142 -2 -162 -13z"/>
<path d="M2995 2978 c-7 -31 -25 -150 -25 -165 0 -7 7 -13 15 -13 18 0 18 0
49 113 l24 87 -29 0 c-22 0 -30 -6 -34 -22z"/>
<path d="M2951 2766 c-16 -20 -3 -46 24 -46 13 0 26 7 29 16 7 19 -10 44 -29
44 -7 0 -18 -6 -24 -14z"/>
<path d="M1190 2625 l0 -25 560 0 560 0 0 25 0 25 -560 0 -560 0 0 -25z"/>
<path d="M1977 2574 c-8 -8 1 -24 14 -24 5 0 9 7 9 15 0 15 -12 20 -23 9z"/>
<path d="M2302 2569 c-13 -5 -20 -13 -17 -19 4 -7 12 -7 25 0 25 13 50 2 50
-21 0 -11 -18 -39 -40 -63 -22 -24 -40 -46 -40 -50 0 -3 25 -6 55 -6 30 0 55
5 55 10 0 6 -19 10 -42 10 l-42 0 37 38 c42 43 49 85 18 102 -23 12 -28 12
-59 -1z"/>
<path d="M2493 2570 c-32 -13 -29 -24 5 -17 55 11 72 -35 17 -49 -33 -8 -32
-22 3 -26 19 -2 28 -9 30 -25 3 -21 -1 -23 -37 -23 -23 0 -41 -4 -41 -10 0 -5
18 -10 39 -10 59 0 91 41 56 70 -11 9 -13 16 -5 24 17 17 11 55 -9 66 -23 12
-28 12 -58 0z"/>
<path d="M1540 2545 c0 -8 -5 -15 -12 -15 -9 0 -9 -3 0 -12 7 -7 12 -31 12
-55 0 -46 13 -59 47 -50 16 4 15 6 -4 12 -19 6 -23 15 -23 45 0 30 4 39 23 45
l22 8 -22 4 c-13 2 -23 11 -23 19 0 8 -4 14 -10 14 -5 0 -10 -7 -10 -15z"/>
<path d="M1900 2546 c0 -8 -6 -17 -12 -20 -10 -5 -10 -7 0 -12 7 -3 12 -24 12
-50 0 -47 12 -60 47 -51 16 4 15 6 -4 12 -19 6 -23 15 -23 46 0 28 4 39 15 39
8 0 15 5 15 10 0 6 -7 10 -15 10 -8 0 -15 7 -15 15 0 8 -4 15 -10 15 -5 0 -10
-6 -10 -14z"/>
<path d="M958 2532 c-10 -2 -18 -8 -18 -14 0 -5 7 -8 15 -4 21 8 45 -3 45 -20
0 -9 -11 -14 -29 -14 -33 0 -54 -21 -49 -47 3 -14 14 -18 51 -19 l48 -2 -3 55
c-3 58 -18 75 -60 65z m40 -79 c-2 -11 -14 -19 -31 -21 -30 -4 -36 12 -9 27
26 16 44 13 40 -6z"/>
<path d="M1068 2529 c-29 -16 -22 -49 12 -62 17 -6 30 -17 30 -24 0 -8 -12
-13 -30 -13 -16 0 -30 -4 -30 -10 0 -14 64 -12 78 2 21 21 13 38 -23 55 -40
19 -41 39 -1 35 28 -3 36 12 10 22 -21 8 -26 7 -46 -5z"/>
<path d="M1201 2531 c-8 -5 -20 -7 -28 -4 -11 4 -13 -11 -11 -81 2 -51 7 -85
13 -84 6 2 10 14 10 28 0 22 4 25 28 22 38 -6 57 14 57 59 0 28 -6 42 -22 53
-26 18 -28 19 -47 7z m47 -64 c-2 -27 -8 -33 -30 -35 -26 -3 -28 -1 -28 37 0
42 13 54 43 39 13 -7 17 -18 15 -41z"/>
<path d="M1319 2522 c-25 -21 -30 -71 -9 -96 14 -17 75 -22 85 -7 3 6 -11 11
-32 13 -50 4 -55 26 -6 30 30 2 39 7 41 25 2 13 -5 27 -20 37 -28 20 -31 20
-59 -2z m49 -14 c19 -19 14 -28 -18 -28 -16 0 -30 4 -30 8 0 9 21 32 30 32 3
0 11 -5 18 -12z"/>
<path d="M1455 2528 c-27 -15 -35 -28 -35 -59 0 -32 28 -59 63 -59 35 0 35 18
0 22 -24 3 -28 8 -31 41 -3 35 -2 37 27 37 33 0 41 14 15 24 -19 7 -15 8 -39
-6z"/>
<path d="M1720 2530 c-7 -4 -19 -6 -27 -3 -10 4 -13 -9 -13 -56 0 -72 18 -83
22 -13 3 40 6 47 26 50 12 2 22 7 22 12 0 14 -15 19 -30 10z"/>
<path d="M1798 2532 c-10 -2 -18 -8 -18 -14 0 -5 7 -8 15 -4 21 8 45 -3 45
-20 0 -9 -11 -14 -29 -14 -33 0 -54 -21 -49 -47 3 -14 14 -18 51 -19 l48 -2
-3 55 c-3 58 -18 75 -60 65z m40 -79 c-2 -11 -14 -19 -31 -21 -30 -4 -36 12
-9 27 26 16 44 13 40 -6z"/>
<path d="M2052 2524 c-25 -17 -31 -81 -10 -102 20 -20 76 -15 88 7 34 64 -23
134 -78 95z m63 -35 c11 -35 -4 -60 -33 -57 -22 2 -28 9 -30 33 -6 49 49 70
63 24z"/>
<path d="M2174 2526 c-8 -22 3 -33 18 -18 9 9 9 15 0 24 -9 9 -13 7 -18 -6z"/>
<path d="M2420 2521 c0 -12 5 -21 10 -21 6 0 10 6 10 14 0 8 -4 18 -10 21 -5
3 -10 -3 -10 -14z"/>
<path d="M1980 2470 c0 -33 4 -60 10 -60 6 0 10 27 10 60 0 33 -4 60 -10 60
-6 0 -10 -27 -10 -60z"/>
<path d="M2170 2425 c0 -9 5 -15 11 -13 6 2 11 8 11 13 0 5 -5 11 -11 13 -6 2
-11 -4 -11 -13z"/>
<path d="M2417 2434 c-8 -8 1 -24 14 -24 5 0 9 7 9 15 0 15 -12 20 -23 9z"/>
</g>
</svg>
